<?xml version="1.0" encoding="UTF-8"?>
<svg version="1.1" xmlns="http://www.w3.org/2000/svg" width="500" height="500">
<path d="M0 0 C6.47407091 5.16848904 11.02470718 11.35907863 12.87890625 19.5 C13.900812 29.17123171 13.55870925 39.32059162 7.46484375 47.3671875 C7.00335938 47.88539063 6.541875 48.40359375 6.06640625 48.9375 C5.34453125 49.783125 4.62265625 50.62875 3.87890625 51.5 C4.22083272 54.68239037 5.58650481 56.82937062 7.3984375 59.4140625 C7.91986328 60.16526367 8.44128906 60.91646484 8.97851562 61.69042969 C9.54376953 62.49383789 10.10902344 63.29724609 10.69140625 64.125 C11.8860573 65.85111929 13.08005339 67.57769204 14.2734375 69.3046875 C15.47520977 71.03649348 16.67703087 72.76826558 17.87890625 74.5 C19.8940887 77.40659701 21.89382724 80.32276504 23.87890625 83.25 C24.61475952 84.31951904 24.61475952 84.31951904 25.36547852 85.41064453 C28.24439586 89.69687615 30.6938089 94.02841629 32.95703125 98.671875 C37.34862964 108.91746404 37.34862964 108.91746404 44.85107422 116.62597656 C48.30265417 117.63463499 51.56538895 117.66752572 55.13671875 117.5546875 C60.6852189 117.47360295 64.34512836 119.49710815 68.87890625 122.5 C69.84376953 123.11294922 69.84376953 123.11294922 70.828125 123.73828125 C77.18082502 128.40978951 81.5111724 136.77990229 82.87890625 144.5 C83.73003594 155.66289326 82.22864235 164.7673627 74.88671875 173.4609375 C67.47046883 180.99261543 58.43994397 184.41593803 47.94140625 184.9375 C37.85717563 184.52198495 30.16928044 180.87921871 23.0078125 173.8671875 C17.95009 168.24337129 15.98841284 163.88327307 13.87890625 156.5 C-9.22109375 156.5 -32.32109375 156.5 -56.12109375 156.5 C-57.44109375 160.13 -58.76109375 163.76 -60.12109375 167.5 C-65.37561041 175.59195565 -71.61998434 181.04852211 -80.99609375 183.875 C-91.54631467 185.91286963 -101.08075263 184.6241513 -110.375 179.1796875 C-117.18324562 174.4513803 -122.3207345 168.13903362 -124.65234375 160.1171875 C-126.40327382 150.34116129 -125.94456136 140.69629711 -120.6796875 132.1640625 C-114.11718585 122.99787689 -106.09274696 118.57491129 -95.12109375 116.5 C-93.18943359 116.58121094 -93.18943359 116.58121094 -91.21875 116.6640625 C-88.13140587 116.29084305 -87.30027255 115.71907098 -85.29858398 113.27172852 C-83.42788135 110.13639205 -81.75617351 106.9518745 -80.12109375 103.6875 C-78.90308882 101.38364287 -77.68177397 99.08153236 -76.45703125 96.78125 C-75.88049805 95.68296875 -75.30396484 94.5846875 -74.70996094 93.453125 C-71.88419003 88.2010468 -68.55120724 83.3743718 -65.12109375 78.5 C-63.82452618 76.56577624 -62.5330425 74.628137 -61.24609375 72.6875 C-58.49723307 68.56420898 -55.7483724 64.44091797 -52.99951172 60.31762695 C-52.54463379 59.63531006 -52.08975586 58.95299316 -51.62109375 58.25 C-50.12109375 56 -48.62109375 53.75 -47.12109375 51.5 C-47.53101563 50.85933594 -47.9409375 50.21867187 -48.36328125 49.55859375 C-48.90210938 48.69363281 -49.4409375 47.82867187 -49.99609375 46.9375 C-50.52976562 46.09058594 -51.0634375 45.24367187 -51.61328125 44.37109375 C-56.07201326 35.88102113 -56.49648525 25.91559199 -54.50390625 16.62109375 C-51.29927469 7.56021072 -44.83017862 0.66089797 -36.265625 -3.5703125 C-24.13112466 -8.83080627 -10.94024396 -7.42610499 0 0 Z M-39.12109375 57.5 C-39.83458984 58.81484375 -39.83458984 58.81484375 -40.5625 60.15625 C-46.98963012 71.85469905 -54.06206875 83.11946768 -61.17822266 94.40771484 C-64.32950776 99.4233189 -67.44477573 104.46107916 -70.55859375 109.5 C-71.40115723 110.86257935 -71.40115723 110.86257935 -72.26074219 112.25268555 C-73.54800925 114.33482577 -74.83482163 116.41724504 -76.12109375 118.5 C-73.59558013 121.09301064 -71.00477295 123.42497014 -68.18359375 125.6875 C-62.11591529 130.95293419 -59.62887639 136.97665208 -57.12109375 144.5 C-33.69109375 144.5 -10.26109375 144.5 13.87890625 144.5 C15.52890625 140.87 17.17890625 137.24 18.87890625 133.5 C22.67312169 127.72619389 26.08557487 124.20773208 31.87890625 120.5 C31.4128545 115.28224673 28.66510559 111.8523192 25.75390625 107.6875 C20.71698016 100.31653891 15.90040716 92.83454525 11.19140625 85.25 C10.55541504 84.22922363 9.91942383 83.20844727 9.26416016 82.15673828 C6.96678893 78.46889996 4.6702518 74.78059746 2.38623047 71.08447266 C1.14127078 69.07234862 -0.11330783 67.06662034 -1.37109375 65.0625 C-2.03625 63.99128906 -2.70140625 62.92007813 -3.38671875 61.81640625 C-4.97943771 59.23062106 -4.97943771 59.23062106 -8.12109375 58.5 C-9.11109375 58.809375 -10.10109375 59.11875 -11.12109375 59.4375 C-18.91795105 61.83400772 -26.45488658 60.81152719 -34.02734375 58.15625 C-36.23250916 57.35045709 -36.23250916 57.35045709 -39.12109375 57.5 Z " fill="#060A05" transform="translate(274.12109375,133.5)"/>
<path d="M0 0 C0.495 0.99 0.495 0.99 1 2 C-0.21799702 4.31052198 -1.48776568 6.48087743 -2.875 8.6875 C-3.70450151 10.03901682 -4.53392626 11.39058076 -5.36328125 12.7421875 C-6.01224365 13.78971191 -6.01224365 13.78971191 -6.67431641 14.85839844 C-8.82387648 18.33094742 -10.94642445 21.81947913 -13.0625 25.3125 C-13.45614746 25.9521167 -13.84979492 26.5917334 -14.25537109 27.25073242 C-16.32636637 30.39762066 -16.32636637 30.39762066 -17 34 C-15.824375 34.53625 -14.64875 35.0725 -13.4375 35.625 C-6.19083144 39.28039918 -1.52271711 43.68358754 2 51 C4.4390696 58.4490504 4.26099575 68.3870898 1 75.5 C-3.35800706 82.84879621 -9.41115816 87.4962882 -17.42578125 90.34375 C-25.95454407 92.51800213 -33.68329622 90.82255727 -41.33984375 86.7578125 C-45.29205481 84.41010189 -45.29205481 84.41010189 -47 83 C-47 82.34 -47 81.68 -47 81 C-47.66 81 -48.32 81 -49 81 C-49.82011312 79.44148245 -50.63076213 77.87798284 -51.4375 76.3125 C-51.88996094 75.44238281 -52.34242188 74.57226562 -52.80859375 73.67578125 C-56.13501065 66.20497609 -56.18320281 57.38225245 -53.375 49.75 C-50.13131219 42.61840763 -45.73255365 37.75972659 -38.8671875 33.96875 C-35.81937891 32.93897271 -33.19789215 32.92901282 -30.00805664 32.86083984 C-25.86855683 32.65186254 -22.55675885 32.26098498 -19 30 C-13.53504682 23.3829616 -10.12650634 15.40040161 -6.45117188 7.70800781 C-4.68585373 4.41377684 -2.88252696 2.33804965 0 0 Z " fill="#216738" transform="translate(206,219)"/>
<path d="M0 0 C0.78632813 0.4125 1.57265625 0.825 2.3828125 1.25 C8.64624104 4.88816311 11.59012435 9.21146635 14 16 C16.08558803 24.77292512 15.33663748 32.02161651 11 40 C6.28740481 47.15014442 -0.1897604 51.60768452 -8.54296875 53.609375 C-17.45312055 55.02593331 -24.64227474 53.53122801 -32.234375 48.52734375 C-38.42907111 43.60186169 -42.51880658 36.81825804 -44 29 C-44.46001555 20.92266813 -44.65504059 13.17875915 -39.515625 6.5625 C-37.02377129 3.99357865 -34.17694748 2.57153905 -31 1 C-29.76748339 0.27651017 -28.53823705 -0.45258271 -27.3125 -1.1875 C-18.32059701 -6.10759786 -8.6911502 -4.94869762 0 0 Z " fill="#2C773F" transform="translate(334,256)"/>
<path d="M0 0 C5.10805862 4.03177871 8.29095606 9.7273123 10.3359375 15.84375 C11.22516123 24.11237582 10.63752843 32.02237911 5.859375 39 C1.9901124 43.73498803 -2.27717919 47.0006727 -7.6640625 49.84375 C-8.4478125 50.276875 -9.2315625 50.71 -10.0390625 51.15625 C-17.42522197 53.09072034 -24.82765695 52.13855195 -31.6640625 48.84375 C-38.44436278 44.69479369 -44.57289944 39.26437481 -47.1484375 31.5078125 C-48.69560789 23.51409879 -49.63782702 13.78813112 -45.1015625 6.65625 C-43.42578125 4.63671875 -43.42578125 4.63671875 -41.6640625 2.84375 C-40.86935547 1.97169922 -40.86935547 1.97169922 -40.05859375 1.08203125 C-28.96621565 -9.79956532 -12.16477006 -7.63573259 0 0 Z " fill="#2C743E" transform="translate(268.6640625,135.15625)"/>
<path d="M0 0 C11.14231242 -0.64009029 20.35798178 1.70155851 29 9 C35.71244591 15.81709429 39.15654348 24.54662493 39.4375 34.0625 C39.01977167 44.16630399 36.15033074 51.73838006 29 59 C21.31199944 65.64359294 11.74679814 68.75412718 1.59765625 68.3359375 C-9.72010491 66.87228718 -17.65096411 61.821594 -24.66015625 52.8828125 C-27.56424668 48.53091022 -28.47950378 45.32173678 -30 40 C-53.1 40 -76.2 40 -100 40 C-101.32 43.63 -102.64 47.26 -104 51 C-109.25451666 59.09195565 -115.49889059 64.54852211 -124.875 67.375 C-135.42522092 69.41286963 -144.95965888 68.1241513 -154.25390625 62.6796875 C-161.06215187 57.9513803 -166.19964075 51.63903362 -168.53125 43.6171875 C-170.03452475 35.22390349 -170.1582153 25.686976 -166 18 C-165.34 17.67 -164.68 17.34 -164 17 C-164.875 21.75 -164.875 21.75 -166 24 C-166.84977224 33.41286176 -164.71900301 41.41768536 -161 50 C-160.34 50 -159.68 50 -159 50 C-159 50.66 -159 51.32 -159 52 C-158.13181641 52.43119141 -158.13181641 52.43119141 -157.24609375 52.87109375 C-155.83602338 53.57980738 -154.43139326 54.29956419 -153.03515625 55.03515625 C-145.45929129 58.98060671 -137.87159104 60.47011178 -129.41015625 58.3515625 C-122.13352987 55.72794066 -116.13494837 52.00435589 -112.4296875 45.0546875 C-110.40695405 40.35038741 -109.00767595 36.03837976 -108 31 C-84.9 31.33 -61.8 31.66 -38 32 C-38 31.34 -38 30.68 -38 30 C-38.63462158 30.00523682 -39.26924316 30.01047363 -39.9230957 30.01586914 C-59.96863476 30.15632125 -79.96736228 29.66043593 -100 29 C-100 28.67 -100 28.34 -100 28 C-65.35 27.505 -65.35 27.505 -30 27 C-29.34 25.02 -28.68 23.04 -28 21 C-27.10314054 24.00550612 -26.99744391 26.44455273 -27.1875 29.5625 C-27.25064503 36.68736376 -25.07851633 43.65255468 -20.75 49.375 C-14.79684186 55.05756004 -8.11059982 58.96109125 0.25 59.3125 C10.62980396 59.01593417 18.09476966 54.90523034 25.3125 47.6875 C29.31636145 41.31097991 30.96975627 34.48651838 30 27 C29.24042506 23.88419259 28.1906575 20.9738223 27 18 C26.67 16.96875 26.34 15.9375 26 14.875 C21.62680185 8.58852766 14.17710154 5.16267166 7 3 C7 2.34 7 1.68 7 1 C4.69 1 2.38 1 0 1 C0 0.67 0 0.34 0 0 Z " fill="#000100" transform="translate(318,250)"/>
<path d="M0 0 C6.91311668 -0.40665392 11.42925924 2.09550759 17 6 C22.84034445 11.82856956 26.12370577 18.60323155 26.375 26.875 C26.08936408 36.03820043 23.774238 41.77809872 17.62109375 48.56640625 C16 50 16 50 14 50 C13.34 48.02 12.68 46.04 12 44 C12 44.66 12 45.32 12 46 C10.35 45.67 8.7 45.34 7 45 C7 44.34 7 43.68 7 43 C6.34 43 5.68 43 5 43 C5 42.34 5 41.68 5 41 C4.34 41 3.68 41 3 41 C3 40.01 3 39.02 3 38 C2.01 38 1.02 38 0 38 C0 37.34 0 36.68 0 36 C1.485 35.505 1.485 35.505 3 35 C2.67 34.34 2.34 33.68 2 33 C2.99 32.505 2.99 32.505 4 32 C2.68 31.67 1.36 31.34 0 31 C0 30.34 0 29.68 0 29 C0.66 28.67 1.32 28.34 2 28 C2 27.01 2 26.02 2 25 C1.01 24.67 0.02 24.34 -1 24 C-1.33 23.34 -1.66 22.68 -2 22 C-2.66 22 -3.32 22 -4 22 C-4.33 20.68 -4.66 19.36 -5 18 C-4.34 18 -3.68 18 -3 18 C-3.33 16.68 -3.66 15.36 -4 14 C-6.97 13.505 -6.97 13.505 -10 13 C-9.34 12.67 -8.68 12.34 -8 12 C-8 11.34 -8 10.68 -8 10 C-6.50390625 8.88671875 -6.50390625 8.88671875 -4.5625 7.6875 C-1.49220101 5.62315785 -1.49220101 5.62315785 -0.0625 2.1875 C-0.041875 1.465625 -0.02125 0.74375 0 0 Z " fill="#4FA157" transform="translate(253,130)"/>
<path d="M0 0 C1 3 1 3 1 5 C3.97 4.01 6.94 3.02 10 2 C10.33 2.99 10.66 3.98 11 5 C11.33 4.01 11.66 3.02 12 2 C12 3.32 12 4.64 12 6 C10.35 6.66 8.7 7.32 7 8 C7.99 9.485 7.99 9.485 9 11 C7.68 11 6.36 11 5 11 C5 11.66 5 12.32 5 13 C5.66 13 6.32 13 7 13 C6.67 15.31 6.34 17.62 6 20 C6.66 20 7.32 20 8 20 C8 20.99 8 21.98 8 23 C8.99 23 9.98 23 11 23 C11.66 22.34 12.32 21.68 13 21 C18.56278465 22.3597918 18.56278465 22.3597918 20.75 25.5625 C21.1625 26.366875 21.575 27.17125 22 28 C22.66 28.33 23.32 28.66 24 29 C24 30.65 24 32.3 24 34 C23.01 34 22.02 34 21 34 C21 34.66 21 35.32 21 36 C22.98 36 24.96 36 27 36 C27.33 36.66 27.66 37.32 28 38 C27.67 38.33 27.34 38.66 27 39 C27 39.66 27 40.32 27 41 C28.65 41 30.3 41 32 41 C32.33 40.01 32.66 39.02 33 38 C33.33 38.99 33.66 39.98 34 41 C33.505 41.99 33.505 41.99 33 43 C34.32 43.66 35.64 44.32 37 45 C33.32050115 48.67949885 27.67258223 49.12396572 22.625 49.375 C14.51987174 49.13784478 7.60130094 45.54319805 1.7578125 40.06640625 C-5.94940216 31.00614724 -6.38701666 21.61132769 -5.8125 10.3125 C-4.74190007 5.94774644 -2.78838229 3.50335211 0 0 Z " fill="#246C3B" transform="translate(296,261)"/>
<path d="M0 0 C8.44923813 0.46940212 17.08711535 3.74923623 23 10 C27.61197163 17.72603794 29.92311751 24.96883366 29 34 C28.20795303 36.51889356 27.20728007 38.6357432 26 41 C25.34 41 24.68 41 24 41 C24.66 38.03 25.32 35.06 26 32 C22.98600386 31.20217749 21.03887824 30.9928591 17.9375 31.5625 C14.74794104 32.0375407 13.6442076 31.72890497 11 30 C11.66 31.65 12.32 33.3 13 35 C12.278125 34.46375 11.55625 33.9275 10.8125 33.375 C8.06293369 31.64088949 8.06293369 31.64088949 5.1875 32.8125 C4.465625 33.204375 3.74375 33.59625 3 34 C3.375 32.0625 3.375 32.0625 4 30 C4.66 29.67 5.32 29.34 6 29 C6 28.01 6 27.02 6 26 C6.66 26 7.32 26 8 26 C8.33 25.34 8.66 24.68 9 24 C9 24.66 9 25.32 9 26 C9.66 26 10.32 26 11 26 C11 24.68 11 23.36 11 22 C10.01 21.34 9.02 20.68 8 20 C8.33 17.69 8.66 15.38 9 13 C8.34 12.67 7.68 12.34 7 12 C7.66 11.01 8.32 10.02 9 9 C9.66 9 10.32 9 11 9 C11 7.68 11 6.36 11 5 C8.03 4.505 8.03 4.505 5 4 C5.66 4.33 6.32 4.66 7 5 C7.125 7.875 7.125 7.875 7 11 C4.99226044 13.00773956 3.63126383 13.99392854 1 15 C-1.25 14.625 -1.25 14.625 -3 14 C-3 13.34 -3 12.68 -3 12 C-3.66 11.67 -4.32 11.34 -5 11 C-4.34 10.34 -3.68 9.68 -3 9 C-3.32041397 6.39719432 -3.32041397 6.39719432 -4 4 C-3.34 4 -2.68 4 -2 4 C-2 3.34 -2 2.68 -2 2 C-1.34 1.67 -0.68 1.34 0 1 C0 0.67 0 0.34 0 0 Z " fill="#4A8751" transform="translate(320,252)"/>
<path d="M0 0 C7.12147287 1.33527616 12.09522713 4.99341673 16.359375 10.875 C20.84505863 18.41614929 20.77775095 26.47066462 20 35 C18.58977754 39.52963454 17.06155107 43.80237231 12.828125 46.26171875 C12.22484375 46.50535156 11.6215625 46.74898438 11 47 C11.20625 46.236875 11.4125 45.47375 11.625 44.6875 C12.33391203 41.78114056 12.33391203 41.78114056 10 39 C7.94996045 37.80767387 7.94996045 37.80767387 6 37 C6.33 36.01 6.66 35.02 7 34 C8.485 33.505 8.485 33.505 10 33 C10.33 31.02 10.66 29.04 11 27 C9.68 27.33 8.36 27.66 7 28 C7 27.34 7 26.68 7 26 C6.34 26 5.68 26 5 26 C4.67 24.35 4.34 22.7 4 21 C3.34 21 2.68 21 2 21 C1.67 19.35 1.34 17.7 1 16 C1.66 15.67 2.32 15.34 3 15 C2.67 11.7 2.34 8.4 2 5 C1.01 5.66 0.02 6.32 -1 7 C-0.67 4.69 -0.34 2.38 0 0 Z " fill="#357C42" transform="translate(189,254)"/>
<path d="M0 0 C0.6484375 1.8359375 0.6484375 1.8359375 1 4 C-1.375 6.625 -1.375 6.625 -4 9 C-4.33 9.66 -4.66 10.32 -5 11 C-5.99 11 -6.98 11 -8 11 C-6.74458443 13.51083114 -5.49936512 13.87125446 -3 15 C-3 16.32 -3 17.64 -3 19 C-2.34 19.66 -1.68 20.32 -1 21 C-1.99 21 -2.98 21 -4 21 C-4 21.66 -4 22.32 -4 23 C-3.01 22.67 -2.02 22.34 -1 22 C-1 22.99 -1 23.98 -1 25 C0.32 25.33 1.64 25.66 3 26 C3 27.32 3 28.64 3 30 C2.01 30 1.02 30 0 30 C1.65 30.66 3.3 31.32 5 32 C4.01 32.99 3.02 33.98 2 35 C0.68 34.34 -0.64 33.68 -2 33 C-2 32.34 -2 31.68 -2 31 C-2.66 31 -3.32 31 -4 31 C-4 30.34 -4 29.68 -4 29 C-4.66 28.67 -5.32 28.34 -6 28 C-5.2236068 31.0745356 -5.2236068 31.0745356 -3 33 C-6.14737182 32.30058404 -9.02588876 31.23921302 -12 30 C-12.33 30.33 -12.66 30.66 -13 31 C-11.35 31.33 -9.7 31.66 -8 32 C-9.6875 33.125 -9.6875 33.125 -12 34 C-14.625 33.4375 -14.625 33.4375 -17 32 C-18.51700596 29.11768868 -19.29535173 26.17091721 -20 23 C-16 23 -12 23 -8 23 C-8.46148437 22.608125 -8.92296875 22.21625 -9.3984375 21.8125 C-11.33945995 19.61583069 -11.86188299 17.8176628 -12.625 15 C-12.86476562 14.13375 -13.10453125 13.2675 -13.3515625 12.375 C-13.56554687 11.59125 -13.77953125 10.8075 -14 10 C-14.33 9.01 -14.66 8.02 -15 7 C-15.33 7 -15.66 7 -16 7 C-16.99 7 -17.98 7 -19 7 C-18.5 5.1875 -18.5 5.1875 -17 3 C-11.19175888 0.14682892 -6.40967041 -0.4006044 0 0 Z " fill="#3A8647" transform="translate(253,129)"/>
<path d="M0 0 C1.98 0 3.96 0 6 0 C6.33 0.99 6.66 1.98 7 3 C9.00016466 4.20882096 9.00016466 4.20882096 11 5 C10.979375 5.7425 10.95875 6.485 10.9375 7.25 C10.88746913 9.91391523 10.88746913 9.91391523 11.5625 12.0625 C12.08522972 14.37744592 11.56908957 15.7236417 11 18 C11.37907282 20.18703385 11.37907282 20.18703385 12 22 C10.35 22.33 8.7 22.66 7 23 C7.33 26.63 7.66 30.26 8 34 C5.03 34.495 5.03 34.495 2 35 C2 34.34 2 33.68 2 33 C2.99 32.505 2.99 32.505 4 32 C2.68 31.67 1.36 31.34 0 31 C0 30.34 0 29.68 0 29 C0.66 28.67 1.32 28.34 2 28 C2 27.01 2 26.02 2 25 C1.01 24.67 0.02 24.34 -1 24 C-1.33 23.34 -1.66 22.68 -2 22 C-2.66 22 -3.32 22 -4 22 C-4.33 20.68 -4.66 19.36 -5 18 C-4.34 18 -3.68 18 -3 18 C-3.33 16.68 -3.66 15.36 -4 14 C-6.97 13.505 -6.97 13.505 -10 13 C-9.34 12.67 -8.68 12.34 -8 12 C-8 11.34 -8 10.68 -8 10 C-6.50390625 8.88671875 -6.50390625 8.88671875 -4.5625 7.6875 C-1.49220101 5.62315785 -1.49220101 5.62315785 -0.0625 2.1875 C-0.041875 1.465625 -0.02125 0.74375 0 0 Z " fill="#4A9D52" transform="translate(253,130)"/>
<path d="M0 0 C0.33 0.66 0.66 1.32 1 2 C3.02463255 2.65213292 3.02463255 2.65213292 5 3 C5 5.31 5 7.62 5 10 C4.34 10 3.68 10 3 10 C3 10.66 3 11.32 3 12 C3.66 12 4.32 12 5 12 C3.66216131 17.51858459 -0.5122365 20.85009807 -5 24 C-7.74150201 24.98633375 -8.5201827 25.19992388 -11.25 24.0625 C-12.11625 23.5365625 -12.11625 23.5365625 -13 23 C-13 22.34 -13 21.68 -13 21 C-15.31 21.33 -17.62 21.66 -20 22 C-19.34 21.67 -18.68 21.34 -18 21 C-18.66 20.67 -19.32 20.34 -20 20 C-19.67 19.01 -19.34 18.02 -19 17 C-20.65 16.67 -22.3 16.34 -24 16 C-24 15.34 -24 14.68 -24 14 C-21.525 14.495 -21.525 14.495 -19 15 C-19 14.01 -19 13.02 -19 12 C-18.34 12 -17.68 12 -17 12 C-17 12.99 -17 13.98 -17 15 C-14.36 14.67 -11.72 14.34 -9 14 C-9 12.02 -9 10.04 -9 8 C-9.66 8 -10.32 8 -11 8 C-11 7.01 -11 6.02 -11 5 C-10.34 4.67 -9.68 4.34 -9 4 C-9.33 3.01 -9.66 2.02 -10 1 C-8.68 1 -7.36 1 -6 1 C-6 1.66 -6 2.32 -6 3 C-4.02 2.67 -2.04 2.34 0 2 C0 1.34 0 0.68 0 0 Z " fill="#358043" transform="translate(341,281)"/>
<path d="M0 0 C6.77954726 1.69488681 11.84090448 4.90773607 15.84375 10.640625 C20.28000631 18.63425666 21.54736978 25.8367475 19.30859375 34.75390625 C18.61930652 36.88170596 17.87316002 38.94183709 17 41 C16.01 41 15.02 41 14 41 C13.07699478 38.41558539 12.80467778 37.41505971 14 34.875 C14.495 33.946875 14.495 33.946875 15 33 C14.67 32.34 14.34 31.68 14 31 C13.01 31.33 12.02 31.66 11 32 C10.34 30.35 9.68 28.7 9 27 C8.34 27.66 7.68 28.32 7 29 C7.54723683 25.62537285 8.0549 23.91765 10 21 C9.01 20.67 8.02 20.34 7 20 C6.87625 18.88625 6.7525 17.7725 6.625 16.625 C6.3534187 12.96896323 6.3534187 12.96896323 4 11 C4 8.66666667 4 6.33333333 4 4 C2.68 3.34 1.36 2.68 0 2 C0 1.34 0 0.68 0 0 Z " fill="#60AF65" transform="translate(259,131)"/>
<path d="M0 0 C1.32 0 2.64 0 4 0 C4 1.65 4 3.3 4 5 C4.66 5 5.32 5 6 5 C5.125 10.75 5.125 10.75 4 13 C5.98 13 7.96 13 10 13 C9.51515724 8.35413108 9.51515724 8.35413108 8 4 C9.32 4.33 10.64 4.66 12 5 C12 5.66 12 6.32 12 7 C12.66 7.33 13.32 7.66 14 8 C14 9.32 14 10.64 14 12 C14.99 11.67 15.98 11.34 17 11 C19 13 19 13 19.1953125 15.3828125 C19.17210937 16.28773438 19.14890625 17.19265625 19.125 18.125 C19.09792969 19.49011719 19.09792969 19.49011719 19.0703125 20.8828125 C19.04710937 21.58148438 19.02390625 22.28015625 19 23 C19.763125 23.12375 20.52625 23.2475 21.3125 23.375 C24 24 24 24 27 26 C17.91838865 26.58591041 10.88072532 24.5944254 3.6875 18.875 C-0.4342288 15.01297362 -3.20825922 10.35564049 -5 5 C-4.67 4.34 -4.34 3.68 -4 3 C-1.9375 2.375 -1.9375 2.375 0 2 C0 1.34 0 0.68 0 0 Z " fill="#1A6234" transform="translate(296,284)"/>
<path d="M0 0 C0 0.99 0 1.98 0 3 C-0.66 2.67 -1.32 2.34 -2 2 C-1.67 3.32 -1.34 4.64 -1 6 C-1.99 6.495 -1.99 6.495 -3 7 C-2.67 7.99 -2.34 8.98 -2 10 C-2.4375 12.1875 -2.4375 12.1875 -3 14 C0.43230448 13.73606499 0.43230448 13.73606499 4 13 C6.2799125 10.31300604 6.2799125 10.31300604 5.6875 8 C5.3471875 7.01 5.3471875 7.01 5 6 C4.67 5.01 4.34 4.02 4 3 C6.38564077 3.57584432 8.66682784 4.22227595 11 5 C11 6.32 11 7.64 11 9 C10.34 9.66 9.68 10.32 9 11 C8.64390808 13.13818461 8.64390808 13.13818461 8.6875 15.5 C8.67074219 16.2940625 8.65398437 17.088125 8.63671875 17.90625 C8.75660156 18.5971875 8.87648438 19.288125 9 20 C9.99 20.66 10.98 21.32 12 22 C11.67 23.32 11.34 24.64 11 26 C9.35 26.33 7.7 26.66 6 27 C6.33 27.66 6.66 28.32 7 29 C4.84365964 31.15634036 2.62901288 32.47793991 0 34 C0 33.34 0 32.68 0 32 C0.66 32 1.32 32 2 32 C2 31.34 2 30.68 2 30 C1.01 29.67 0.02 29.34 -1 29 C-0.67 28.34 -0.34 27.68 0 27 C0.66 27 1.32 27 2 27 C2.33 26.34 2.66 25.68 3 25 C1.02 24.67 -0.96 24.34 -3 24 C-3 23.34 -3 22.68 -3 22 C-3.66 21.67 -4.32 21.34 -5 21 C-4.34 21 -3.68 21 -3 21 C-3.33 18.36 -3.66 15.72 -4 13 C-4.99 13 -5.98 13 -7 13 C-8 10 -8 10 -7 7 C-7.66 6.67 -8.32 6.34 -9 6 C-9 4.35 -9 2.7 -9 1 C-5.8035914 -0.06546953 -3.34252724 -0.07427838 0 0 Z " fill="#378445" transform="translate(320,252)"/>
<path d="M0 0 C1.32 0 2.64 0 4 0 C4 0.66 4 1.32 4 2 C8.455 1.505 8.455 1.505 13 1 C12.67 1.66 12.34 2.32 12 3 C10.02 3 8.04 3 6 3 C6 3.66 6 4.32 6 5 C6.99 5 7.98 5 9 5 C9 5.99 9 6.98 9 8 C9.66 8 10.32 8 11 8 C11 8.66 11 9.32 11 10 C11.66 10 12.32 10 13 10 C13.33 10.66 13.66 11.32 14 12 C14.66 11.34 15.32 10.68 16 10 C16 10.99 16 11.98 16 13 C16.66 13 17.32 13 18 13 C18 12.34 18 11.68 18 11 C18.66 11.33 19.32 11.66 20 12 C20.625 15.0625 20.625 15.0625 21 18 C16.02495953 21.24900602 13.11774896 22.49940808 7 22 C7 21.34 7 20.68 7 20 C6.01 19.34 5.02 18.68 4 18 C4.66 17.34 5.32 16.68 6 16 C6.33 15.01 6.66 14.02 7 13 C6.34 13 5.68 13 5 13 C4.67 14.32 4.34 15.64 4 17 C3.01 16.67 2.02 16.34 1 16 C1.66 16 2.32 16 3 16 C2.01 14.68 1.02 13.36 0 12 C1.32 11.34 2.64 10.68 4 10 C3.67 9.67 3.34 9.34 3 9 C2.34 9.66 1.68 10.32 1 11 C-1 10 -1 10 -1.75 7.75 C-2.03830777 4.57861448 -1.37610249 2.83315218 0 0 Z " fill="#3A8647" transform="translate(247,163)"/>
<path d="M0 0 C2 1.5 2 1.5 3 3 C0.7189853 4.9430866 -0.61538339 5.94505477 -3.625 6.375 C-4.40875 6.58125 -5.1925 6.7875 -6 7 C-7.37466625 9.47636012 -7.37466625 9.47636012 -8 12 C-10.475 11.505 -10.475 11.505 -13 11 C-13.33 11.66 -13.66 12.32 -14 13 C-14.66 12.67 -15.32 12.34 -16 12 C-16 12.66 -16 13.32 -16 14 C-17.32 13.34 -18.64 12.68 -20 12 C-19.34 11.34 -18.68 10.68 -18 10 C-23.01535052 10.32960216 -23.01535052 10.32960216 -27 13 C-27 12.01 -27 11.02 -27 10 C-21.65116279 5 -21.65116279 5 -19 5 C-18.67 4.01 -18.34 3.02 -18 2 C-11.93086473 0.60708371 -6.23666477 -0.54707586 0 0 Z " fill="#276739" transform="translate(185,252)"/>
<path d="M0 0 C3.93782792 0.87507287 5.58321931 1.35327134 7.8125 4.8125 C10.37216946 11.6831917 11.4727117 19.14954306 8.5 26.0625 C8.005 27.031875 7.51 28.00125 7 29 C6.34 29 5.68 29 5 29 C5.66 26.03 6.32 23.06 7 20 C4.03 19.67 1.06 19.34 -2 19 C-1.01 17.68 -0.02 16.36 1 15 C0.34 14.67 -0.32 14.34 -1 14 C-1 12.68 -1 11.36 -1 10 C-1.99 10.33 -2.98 10.66 -4 11 C-4 10.34 -4 9.68 -4 9 C-3.01 8.34 -2.02 7.68 -1 7 C-0.83329727 3.95826106 -0.83329727 3.95826106 -1 1 C-0.67 0.67 -0.34 0.34 0 0 Z " fill="#4B9B54" transform="translate(339,264)"/>
<path d="M0 0 C2.31 0.66 4.62 1.32 7 2 C7 2.99 7 3.98 7 5 C8.32 5.66 9.64 6.32 11 7 C11 7.66 11 8.32 11 9 C11.66 9.33 12.32 9.66 13 10 C12.34 11.65 11.68 13.3 11 15 C10.34 15 9.68 15 9 15 C9 15.66 9 16.32 9 17 C4.64722617 19.05547653 4.64722617 19.05547653 1.8125 18.8125 C0 18 0 18 -2 15 C-2 13.33333333 -2 11.66666667 -2 10 C-2.66 9.34 -3.32 8.68 -4 8 C-3.525625 7.566875 -3.05125 7.13375 -2.5625 6.6875 C-0.61579033 4.58505355 0 2.86810286 0 0 Z " fill="#267038" transform="translate(189,286)"/>
<path d="M0 0 C0.99 0.99 1.98 1.98 3 3 C0 4 0 4 -2 4 C-2 6.31 -2 8.62 -2 11 C-3.32 11.33 -4.64 11.66 -6 12 C-5.01 12.33 -4.02 12.66 -3 13 C-3 14.32 -3 15.64 -3 17 C-2.01 17.33 -1.02 17.66 0 18 C-0.66 18.99 -1.32 19.98 -2 21 C-2.66 21 -3.32 21 -4 21 C-4 21.66 -4 22.32 -4 23 C-5.98 22.34 -7.96 21.68 -10 21 C-9.34 22.65 -8.68 24.3 -8 26 C-8.721875 25.46375 -9.44375 24.9275 -10.1875 24.375 C-12.93706631 22.64088949 -12.93706631 22.64088949 -15.8125 23.8125 C-16.534375 24.204375 -17.25625 24.59625 -18 25 C-17.625 23.0625 -17.625 23.0625 -17 21 C-16.34 20.67 -15.68 20.34 -15 20 C-15 19.01 -15 18.02 -15 17 C-14.34 17 -13.68 17 -13 17 C-12.67 16.34 -12.34 15.68 -12 15 C-12 15.66 -12 16.32 -12 17 C-11.34 17 -10.68 17 -10 17 C-9.855625 16.360625 -9.71125 15.72125 -9.5625 15.0625 C-9 13 -9 13 -8 12 C-8.66 11.34 -9.32 10.68 -10 10 C-9.7578125 7.8359375 -9.7578125 7.8359375 -9.125 5.375 C-8.92132813 4.55773437 -8.71765625 3.74046875 -8.5078125 2.8984375 C-8.34023438 2.27195312 -8.17265625 1.64546875 -8 1 C-7.34 1.33 -6.68 1.66 -6 2 C-3.9254644 2.1490712 -3.9254644 2.1490712 -2 1 C-1.34 1.33 -0.68 1.66 0 2 C0 1.34 0 0.68 0 0 Z " fill="#418E4C" transform="translate(341,261)"/>
<path d="M0 0 C1.98 0 3.96 0 6 0 C6.33 0.99 6.66 1.98 7 3 C9.00016466 4.20882096 9.00016466 4.20882096 11 5 C10.6875 7.375 10.6875 7.375 10 10 C9.01 10.66 8.02 11.32 7 12 C5.80767387 14.05003955 5.80767387 14.05003955 5 16 C3.88625 15.505 3.88625 15.505 2.75 15 C-0.13883312 13.77217129 -0.13883312 13.77217129 -4 14 C-6.00401011 13.69169075 -8.00511766 13.36270588 -10 13 C-9.34 12.67 -8.68 12.34 -8 12 C-8 11.34 -8 10.68 -8 10 C-6.50390625 8.88671875 -6.50390625 8.88671875 -4.5625 7.6875 C-1.49220101 5.62315785 -1.49220101 5.62315785 -0.0625 2.1875 C-0.041875 1.465625 -0.02125 0.74375 0 0 Z " fill="#50A258" transform="translate(253,130)"/>
<path d="M0 0 C0 0.66 0 1.32 0 2 C-1.99330842 3.34331654 -3.99384866 4.67594012 -6 6 C-8.30745935 8.75310083 -8.30745935 8.75310083 -7.6875 11.5 C-7.17901328 13.34904262 -6.60642538 15.18072387 -6 17 C-7.65 17.33 -9.3 17.66 -11 18 C-13.20808081 23.19548425 -12.93402724 26.58264203 -12 32 C-11.01 32.33 -10.02 32.66 -9 33 C-7.8125 35.0625 -7.8125 35.0625 -7 37 C-6.34 37 -5.68 37 -5 37 C-4.67 38.32 -4.34 39.64 -4 41 C-4.9590625 41.1546875 -4.9590625 41.1546875 -5.9375 41.3125 C-6.618125 41.539375 -7.29875 41.76625 -8 42 C-8.33 42.99 -8.66 43.98 -9 45 C-9.82011312 43.44148245 -10.63076213 41.87798284 -11.4375 40.3125 C-11.88996094 39.44238281 -12.34242188 38.57226562 -12.80859375 37.67578125 C-16.13501065 30.20497609 -16.18320281 21.38225245 -13.375 13.75 C-11.10910076 8.68599743 -6.34307877 0 0 0 Z M-6 7 C-5.34 7.33 -4.68 7.66 -4 8 C-4.33 8.66 -4.66 9.32 -5 10 C-5.66 10 -6.32 10 -7 10 C-6.67 9.01 -6.34 8.02 -6 7 Z M-4 37 C-2.515 37.99 -2.515 37.99 -1 39 C-1.99 39.33 -2.98 39.66 -4 40 C-4 39.01 -4 38.02 -4 37 Z " fill="#13512D" transform="translate(166,255)"/>
<path d="M0 0 C0.66 0.33 1.32 0.66 2 1 C2 2.65 2 4.3 2 6 C1.01 6 0.02 6 -1 6 C-1 6.66 -1 7.32 -1 8 C0.98 8 2.96 8 5 8 C5.33 8.66 5.66 9.32 6 10 C5.67 10.33 5.34 10.66 5 11 C5 11.66 5 12.32 5 13 C6.65 13 8.3 13 10 13 C10.33 12.01 10.66 11.02 11 10 C11.33 10.99 11.66 11.98 12 13 C11.67 13.66 11.34 14.32 11 15 C12.32 15.66 13.64 16.32 15 17 C12.10273411 19.89726589 10.20595722 19.99003433 6.125 20.1875 C2.68990504 20.15581093 0.10842518 19.55421259 -3 18 C-3.22786458 15.98177083 -3.45572917 13.96354167 -3.68359375 11.9453125 C-3.91292961 9.92595684 -3.91292961 9.92595684 -5 8 C-4.34 8 -3.68 8 -3 8 C-3 7.01 -3 6.02 -3 5 C-2.34 5 -1.68 5 -1 5 C-0.67 3.35 -0.34 1.7 0 0 Z " fill="#286F3A" transform="translate(318,289)"/>
<path d="M0 0 C6.48807617 2.88358941 10.01188984 6.69176745 13 13 C13.25 15.9375 13.25 15.9375 13 18 C12.01 18 11.02 18 10 18 C10 17.34 10 16.68 10 16 C7.69 16.66 5.38 17.32 3 18 C2.67 16.68 2.34 15.36 2 14 C2.66 14 3.32 14 4 14 C4 13.01 4 12.02 4 11 C3.34 11 2.68 11 2 11 C1.87625 10.030625 1.7525 9.06125 1.625 8.0625 C1.41875 7.051875 1.2125 6.04125 1 5 C0.34 4.67 -0.32 4.34 -1 4 C-0.67 2.68 -0.34 1.36 0 0 Z " fill="#3F8A47" transform="translate(195,257)"/>
<path d="M0 0 C0.33 0.99 0.66 1.98 1 3 C1.66 3.33 2.32 3.66 3 4 C2.67 4.66 2.34 5.32 2 6 C3.32 5.01 4.64 4.02 6 3 C6.59732819 5.76264289 7 8.16032769 7 11 C6.01 11.495 6.01 11.495 5 12 C5.66 13.65 6.32 15.3 7 17 C5.37660195 18.70884005 3.70680947 20.37446717 2 22 C1.34 22 0.68 22 0 22 C0 21.34 0 20.68 0 20 C0.66 20 1.32 20 2 20 C2 18.68 2 17.36 2 16 C0.02 15.34 -1.96 14.68 -4 14 C-4 12 -4 12 -3 11 C-3.2475 10.13375 -3.2475 10.13375 -3.5 9.25 C-4.11711912 6.47296397 -3.85383055 4.70379676 -3 2 C-2.01 1.34 -1.02 0.68 0 0 Z " fill="#54A55B" transform="translate(268,157)"/>
<path d="M0 0 C1.23556641 0.01740234 1.23556641 0.01740234 2.49609375 0.03515625 C3.32238281 0.04417969 4.14867187 0.05320313 5 0.0625 C5.63808594 0.07410156 6.27617187 0.08570313 6.93359375 0.09765625 C7.58203125 1.93359375 7.58203125 1.93359375 7.93359375 4.09765625 C5.55859375 6.72265625 5.55859375 6.72265625 2.93359375 9.09765625 C2.60359375 9.75765625 2.27359375 10.41765625 1.93359375 11.09765625 C0.94359375 11.09765625 -0.04640625 11.09765625 -1.06640625 11.09765625 C0.18900932 13.60848739 1.43422863 13.96891071 3.93359375 15.09765625 C3.60359375 16.08765625 3.27359375 17.07765625 2.93359375 18.09765625 C1.94359375 18.42765625 0.95359375 18.75765625 -0.06640625 19.09765625 C-0.72640625 17.77765625 -1.38640625 16.45765625 -2.06640625 15.09765625 C-2.72640625 15.09765625 -3.38640625 15.09765625 -4.06640625 15.09765625 C-4.06640625 13.44765625 -4.06640625 11.79765625 -4.06640625 10.09765625 C-3.07640625 10.09765625 -2.08640625 10.09765625 -1.06640625 10.09765625 C-1.06640625 9.43765625 -1.06640625 8.77765625 -1.06640625 8.09765625 C-2.05640625 8.42765625 -3.04640625 8.75765625 -4.06640625 9.09765625 C-3.73640625 7.44765625 -3.40640625 5.79765625 -3.06640625 4.09765625 C-2.40640625 4.09765625 -1.74640625 4.09765625 -1.06640625 4.09765625 C-1.06640625 3.43765625 -1.06640625 2.77765625 -1.06640625 2.09765625 C-1.72640625 1.76765625 -2.38640625 1.43765625 -3.06640625 1.09765625 C-2.06640625 0.09765625 -2.06640625 0.09765625 0 0 Z " fill="#41904F" transform="translate(246.06640625,128.90234375)"/>
<path d="M0 0 C2.31 0.66 4.62 1.32 7 2 C6.773125 2.763125 6.54625 3.52625 6.3125 4.3125 C6.209375 5.199375 6.10625 6.08625 6 7 C6.9793879 8.02019573 7.97895449 9.02149805 9 10 C8.6875 12.1875 8.6875 12.1875 8 14 C8.66 14 9.32 14 10 14 C10 14.99 10 15.98 10 17 C9.01 17 8.02 17 7 17 C7 18.98 7 20.96 7 23 C6.01 23 5.02 23 4 23 C4 22.34 4 21.68 4 21 C3.34 21 2.68 21 2 21 C1.67 19.35 1.34 17.7 1 16 C1.66 15.67 2.32 15.34 3 15 C2.67 11.7 2.34 8.4 2 5 C1.01 5.66 0.02 6.32 -1 7 C-0.67 4.69 -0.34 2.38 0 0 Z " fill="#3C8347" transform="translate(189,254)"/>
<path d="M0 0 C0 0.66 0 1.32 0 2 C-0.66 2 -1.32 2 -2 2 C-2 2.66 -2 3.32 -2 4 C-0.576875 4.185625 -0.576875 4.185625 0.875 4.375 C4 5 4 5 6 7 C5.01 8.485 5.01 8.485 4 10 C3.34 10 2.68 10 2 10 C2.33 10.99 2.66 11.98 3 13 C2.34 13 1.68 13 1 13 C0.34 11.02 -0.32 9.04 -1 7 C-1 7.66 -1 8.32 -1 9 C-2.65 8.67 -4.3 8.34 -6 8 C-6 7.34 -6 6.68 -6 6 C-6.66 6 -7.32 6 -8 6 C-8 5.34 -8 4.68 -8 4 C-8.66 4 -9.32 4 -10 4 C-10 3.01 -10 2.02 -10 1 C-10.99 1 -11.98 1 -13 1 C-13 0.34 -13 -0.32 -13 -1 C-8.08295331 -2.26438344 -4.75035002 -1.58345001 0 0 Z " fill="#44944F" transform="translate(266,167)"/>
<path d="M0 0 C0.33 0.66 0.66 1.32 1 2 C3.02463255 2.65213292 3.02463255 2.65213292 5 3 C5 5.31 5 7.62 5 10 C4.34 10 3.68 10 3 10 C3 10.66 3 11.32 3 12 C3.66 12 4.32 12 5 12 C3.68775452 15.93673644 2.08089673 18.22719294 -1 21 C-1.66 20.67 -2.32 20.34 -3 20 C-3 19.01 -3 18.02 -3 17 C-2.01 17 -1.02 17 0 17 C-0.99 16.34 -1.98 15.68 -3 15 C-2.34 14.01 -1.68 13.02 -1 12 C-2.32 12 -3.64 12 -5 12 C-5.33 12.66 -5.66 13.32 -6 14 C-7 11 -7 11 -6 8 C-3.525 8.99 -3.525 8.99 -1 10 C-1 9.01 -1 8.02 -1 7 C-1.66 6.34 -2.32 5.68 -3 5 C-2.01 4.34 -1.02 3.68 0 3 C0 2.01 0 1.02 0 0 Z " fill="#428A4D" transform="translate(341,281)"/>
<path d="M0 0 C6.75 1.875 6.75 1.875 9 3 C9.125 5.875 9.125 5.875 9 9 C6.99226044 11.00773956 5.63126383 11.99392854 3 13 C0.75 12.625 0.75 12.625 -1 12 C-1 11.34 -1 10.68 -1 10 C-1.66 9.67 -2.32 9.34 -3 9 C-2.34 8.34 -1.68 7.68 -1 7 C-1.32041397 4.39719432 -1.32041397 4.39719432 -2 2 C-1.34 2 -0.68 2 0 2 C0 1.34 0 0.68 0 0 Z " fill="#43944D" transform="translate(318,254)"/>
<path d="M0 0 C2.31 0.66 4.62 1.32 7 2 C7 2.99 7 3.98 7 5 C7.66 5.66 8.32 6.32 9 7 C8.34 7 7.68 7 7 7 C7 7.66 7 8.32 7 9 C7.66 9.33 8.32 9.66 9 10 C8.34 10 7.68 10 7 10 C7 10.66 7 11.32 7 12 C6.01 12 5.02 12 4 12 C3.67 11.01 3.34 10.02 3 9 C0.70986347 12.4352048 0.82157027 13.985331 1 18 C-0.5 16.8125 -0.5 16.8125 -2 15 C-2.04063832 13.33382885 -2.042721 11.66611905 -2 10 C-2.66 9.34 -3.32 8.68 -4 8 C-3.525625 7.566875 -3.05125 7.13375 -2.5625 6.6875 C-0.61579033 4.58505355 0 2.86810286 0 0 Z " fill="#2A763E" transform="translate(189,286)"/>
<path d="M0 0 C0.33 0.66 0.66 1.32 1 2 C-0.21800467 4.3105365 -1.4875042 6.4810175 -2.875 8.6875 C-3.70466798 10.03631018 -4.53408742 11.38527328 -5.36328125 12.734375 C-5.79592285 13.43240234 -6.22856445 14.13042969 -6.67431641 14.84960938 C-8.83756238 18.35860947 -10.94789305 21.8990577 -13.0625 25.4375 C-13.82396663 26.70718249 -14.58566201 27.97672784 -15.34765625 29.24609375 C-15.89292969 30.15488281 -16.43820313 31.06367188 -17 32 C-17.98708026 29.41258015 -18.1305995 28.32299839 -17.07543945 25.71337891 C-16.59292725 24.89272949 -16.11041504 24.07208008 -15.61328125 23.2265625 C-15.08669922 22.3190625 -14.56011719 21.4115625 -14.01757812 20.4765625 C-13.45490234 19.53554687 -12.89222656 18.59453125 -12.3125 17.625 C-11.76916016 16.69171875 -11.22582031 15.7584375 -10.66601562 14.796875 C-2.8276399 1.41381995 -2.8276399 1.41381995 0 0 Z " fill="#386738" transform="translate(206,219)"/>
<path d="M0 0 C2.97 0.33 5.94 0.66 9 1 C8.6875 3.375 8.6875 3.375 8 6 C7.01 6.66 6.02 7.32 5 8 C3.80767387 10.05003955 3.80767387 10.05003955 3 12 C-0.67230705 8.92000054 -1.56802365 6.7517398 -2 2 C-1.34 2 -0.68 2 0 2 C0 1.34 0 0.68 0 0 Z " fill="#53A85A" transform="translate(255,134)"/>
<path d="M0 0 C2 2 2 2 2 5 C2.66 5 3.32 5 4 5 C4.33 5.99 4.66 6.98 5 8 C7.53881228 10.27617653 9.64630514 11.40112592 13 12 C13.33 13.32 13.66 14.64 14 16 C11.31952287 16.48735948 9.58174105 16.36228963 7.25 14.91015625 C2.98107121 11.44165161 0.37811806 7.94648557 -2 3 C-2 2.34 -2 1.68 -2 1 C-1.34 0.67 -0.68 0.34 0 0 Z " fill="#26623D" transform="translate(294,289)"/>
<path d="M0 0 C1.37432457 3.81756824 0.67975039 7.07255329 0 11 C-3.3 11 -6.6 11 -10 11 C-10 10.34 -10 9.68 -10 9 C-18.58 9 -27.16 9 -36 9 C-36 8.67 -36 8.34 -36 8 C-24.45 8 -12.9 8 -1 8 C-1 6.02 -1 4.04 -1 2 C-0.67 1.34 -0.34 0.68 0 0 Z " fill="#051B04" transform="translate(290,271)"/>
<path d="M0 0 C0.66 0 1.32 0 2 0 C2 0.99 2 1.98 2 3 C3.65 2.67 5.3 2.34 7 2 C7 2.99 7 3.98 7 5 C7.99 4.67 8.98 4.34 10 4 C10 4.99 10 5.98 10 7 C9.34 7.66 8.68 8.32 8 9 C7.67 8.34 7.34 7.68 7 7 C6.67 7.66 6.34 8.32 6 9 C3.67843403 9.40729228 1.3431213 9.74438677 -1 10 C-0.34 9.67 0.32 9.34 1 9 C0.34 8.67 -0.32 8.34 -1 8 C-0.67 7.01 -0.34 6.02 0 5 C-1.65 4.67 -3.3 4.34 -5 4 C-5 3.34 -5 2.68 -5 2 C-2.525 2.495 -2.525 2.495 0 3 C0 2.01 0 1.02 0 0 Z " fill="#3B884B" transform="translate(322,293)"/>
<path d="M0 0 C0.66 0.33 1.32 0.66 2 1 C-2.81783392 9.12607988 -7.62623726 17.22384921 -13 25 C-13.66 24.67 -14.32 24.34 -15 24 C-13.55680261 19.95904732 -11.59511154 16.66966708 -9.1875 13.125 C-8.47980469 12.08085937 -7.77210938 11.03671875 -7.04296875 9.9609375 C-4.7322513 6.61194357 -2.39312295 3.29054406 0 0 Z " fill="#376136" transform="translate(222,193)"/>
<path d="M0 0 C0.66 0.33 1.32 0.66 2 1 C2 3.64 2 6.28 2 9 C2.763125 9.12375 3.52625 9.2475 4.3125 9.375 C7 10 7 10 10 12 C2.67372525 12.47266289 -2.37384327 11.09866202 -9 8 C-9 7.67 -9 7.34 -9 7 C-7.88625 6.855625 -6.7725 6.71125 -5.625 6.5625 C-2.17857953 6.21627965 -2.17857953 6.21627965 0 5 C0 3.35 0 1.7 0 0 Z " fill="#235435" transform="translate(313,298)"/>
<path d="M0 0 C0 0.66 0 1.32 0 2 C-1.99330842 3.34331654 -3.99384866 4.67594012 -6 6 C-8.30745935 8.75310083 -8.30745935 8.75310083 -7.6875 11.5 C-7.17901328 13.34904262 -6.60642538 15.18072387 -6 17 C-6.99 17.33 -7.98 17.66 -9 18 C-11.17596347 16.27736225 -11.94250248 15.44952607 -12.30078125 12.6484375 C-11.9268853 9.35621082 -10.92864728 8.2114092 -8.6875 5.8125 C-8.07261719 5.13832031 -7.45773438 4.46414063 -6.82421875 3.76953125 C-2.93818985 0 -2.93818985 0 0 0 Z M-6 7 C-5.34 7.33 -4.68 7.66 -4 8 C-4.33 8.66 -4.66 9.32 -5 10 C-5.66 10 -6.32 10 -7 10 C-6.67 9.01 -6.34 8.02 -6 7 Z " fill="#114B22" transform="translate(166,255)"/>
<path d="M0 0 C2.31 0 4.62 0 7 0 C7 0.66 7 1.32 7 2 C7.99 1.67 8.98 1.34 10 1 C12.6875 1.9375 12.6875 1.9375 15 3 C15 3.99 15 4.98 15 6 C17.97 6 20.94 6 24 6 C24 6.33 24 6.66 24 7 C15.09360482 7.50203063 7.42145011 6.26683556 0 1 C0 0.67 0 0.34 0 0 Z " fill="#1A4C2F" transform="translate(162,303)"/>
<path d="M0 0 C-0.33 1.65 -0.66 3.3 -1 5 C-1.99 5 -2.98 5 -4 5 C-4.33 6.32 -4.66 7.64 -5 9 C-6.65 8.67 -8.3 8.34 -10 8 C-9.67 6.35 -9.34 4.7 -9 3 C-8.34 3 -7.68 3 -7 3 C-6.67 2.01 -6.34 1.02 -6 0 C-3 -1 -3 -1 0 0 Z " fill="#196033" transform="translate(168,262)"/>
<path d="M0 0 C4.04010605 3.77269295 7.05721821 7.74863112 10.0625 12.375 C10.69381836 13.32632813 10.69381836 13.32632813 11.33789062 14.296875 C14.0647129 18.43995381 16.71992659 22.59295163 19 27 C18.67 27.66 18.34 28.32 18 29 C17.3709375 28.05640625 16.741875 27.1128125 16.09375 26.140625 C15.68302246 25.52469482 15.27229492 24.90876465 14.84912109 24.27416992 C13.94520044 22.91796179 13.04188591 21.56134949 12.13916016 20.2043457 C9.95814158 16.92742118 7.7709317 13.65557134 5.5546875 10.40234375 C4.83539063 9.34144531 4.11609375 8.28054687 3.375 7.1875 C2.72273438 6.23230469 2.07046875 5.27710938 1.3984375 4.29296875 C0 2 0 2 0 0 Z " fill="#7D9A7A" transform="translate(282,206)"/>
<path d="M0 0 C1.32 0 2.64 0 4 0 C4.08004482 3.5219721 4.04005702 6.61981469 3 10 C3.66 10 4.32 10 5 10 C5 10.99 5 11.98 5 13 C3.35 12.67 1.7 12.34 0 12 C-0.98120464 8.94736336 -0.98120464 7.05263664 0 4 C-0.66 3.67 -1.32 3.34 -2 3 C-1.34 2.01 -0.68 1.02 0 0 Z " fill="#439350" transform="translate(329,261)"/>
<path d="M0 0 C2 2 2 2 2.265625 4.6796875 C2.26046875 5.73414063 2.2553125 6.78859375 2.25 7.875 C2.25515625 8.92429688 2.2603125 9.97359375 2.265625 11.0546875 C2.0075764 13.91599111 1.4774449 15.57276909 0 18 C-1.41880263 15.16239474 -1.1320472 12.72317025 -1.125 9.5625 C-1.12757813 8.40878906 -1.13015625 7.25507813 -1.1328125 6.06640625 C-1 3 -1 3 0 0 Z " fill="#6BAE6E" transform="translate(277,149)"/>
<path d="M0 0 C1 3 1 3 1 5 C3.97 4.01 6.94 3.02 10 2 C10.33 2.99 10.66 3.98 11 5 C11.33 4.01 11.66 3.02 12 2 C12 3.32 12 4.64 12 6 C6.40693931 8.05459372 3.59306069 8.05459372 -2 6 C-2 3 -2 3 0 0 Z " fill="#206636" transform="translate(296,261)"/>
<path d="M0 0 C0 0.99 0 1.98 0 3 C-0.66 2.67 -1.32 2.34 -2 2 C-2 2.66 -2 3.32 -2 4 C-3.8125 5.6875 -3.8125 5.6875 -6 7 C-6.99 6.67 -7.98 6.34 -9 6 C-9 4.35 -9 2.7 -9 1 C-5.8035914 -0.06546953 -3.34252724 -0.07427838 0 0 Z " fill="#3F824B" transform="translate(320,252)"/>
<path d="M0 0 C0.33 0.99 0.66 1.98 1 3 C1.66 3 2.32 3 3 3 C3 2.34 3 1.68 3 1 C3.66 1.33 4.32 1.66 5 2 C5.625 5.0625 5.625 5.0625 6 8 C4.35 8.66 2.7 9.32 1 10 C1 9.34 1 8.68 1 8 C0.34 8 -0.32 8 -1 8 C-0.67 5.36 -0.34 2.72 0 0 Z " fill="#347E41" transform="translate(262,173)"/>
<path d="M0 0 C0.33 0.66 0.66 1.32 1 2 C1.66 2.33 2.32 2.66 3 3 C2.01 3 1.02 3 0 3 C1.25541557 5.51083114 2.50063488 5.87125446 5 7 C4.67 7.99 4.34 8.98 4 10 C3.01 10.33 2.02 10.66 1 11 C0.34 9.68 -0.32 8.36 -1 7 C-1.66 7 -2.32 7 -3 7 C-3 5.35 -3 3.7 -3 2 C-2.01 2 -1.02 2 0 2 C0 1.34 0 0.68 0 0 Z " fill="#44944E" transform="translate(245,137)"/>
<path d="M0 0 C0.99 0.33 1.98 0.66 3 1 C-6.22551253 7.70387244 -6.22551253 7.70387244 -12 8 C-11.67 7.34 -11.34 6.68 -11 6 C-11.66 5.34 -12.32 4.68 -13 4 C-12.21625 3.87625 -11.4325 3.7525 -10.625 3.625 C-7.85942178 3.20882007 -7.85942178 3.20882007 -6 1 C-5.67 1.66 -5.34 2.32 -5 3 C-3.35 2.67 -1.7 2.34 0 2 C0 1.34 0 0.68 0 0 Z " fill="#2C663E" transform="translate(198,301)"/>
<path d="M0 0 C2.43270079 0.94169063 3.72437686 1.52981934 5.0625 3.8125 C5 6 5 6 2.6875 8.75 C0 11 0 11 -2 11 C-2 10.34 -2 9.68 -2 9 C-1.34 9 -0.68 9 0 9 C0 7.68 0 6.36 0 5 C-1.32 4.34 -2.64 3.68 -4 3 C-4 2.34 -4 1.68 -4 1 C-1.525 1.495 -1.525 1.495 1 2 C0.67 1.34 0.34 0.68 0 0 Z " fill="#509B57" transform="translate(270,168)"/>
<path d="M0 0 C0.33 0.66 0.66 1.32 1 2 C0.67 2.66 0.34 3.32 0 4 C-0.60585937 3.97679687 -1.21171875 3.95359375 -1.8359375 3.9296875 C-8.14875029 3.79371922 -13.86431929 4.53788034 -20 6 C-17.79063334 3.45212573 -16.30923873 2.57514296 -12.98828125 2.05078125 C-12.23095703 1.92509766 -11.47363281 1.79941406 -10.69335938 1.66992188 C-9.90767578 1.55197266 -9.12199219 1.43402344 -8.3125 1.3125 C-7.51521484 1.18294922 -6.71792969 1.05339844 -5.89648438 0.91992188 C-3.93271386 0.60242604 -1.96655489 0.29976675 0 0 Z " fill="#012404" transform="translate(187,249)"/>
<path d="M0 0 C1 3 1 3 0.0625 5.1875 C-0.4634375 6.0846875 -0.4634375 6.0846875 -1 7 C0.98 7.66 2.96 8.32 5 9 C3.8125 10.5625 3.8125 10.5625 2 12 C-0.6875 11.6875 -0.6875 11.6875 -3 11 C-3.75 7.75 -3.75 7.75 -4 4 C-2.0625 1.5625 -2.0625 1.5625 0 0 Z " fill="#1E6A33" transform="translate(193,293)"/>
<path d="M0 0 C2 1.625 2 1.625 4 4 C4.25 7.25 4.25 7.25 4 10 C3.67 9.01 3.34 8.02 3 7 C1.02 7.99 1.02 7.99 -1 9 C-1 8.34 -1 7.68 -1 7 C-1.99 6.67 -2.98 6.34 -4 6 C-3.34 5.67 -2.68 5.34 -2 5 C-2 4.01 -2 3.02 -2 2 C-1.34 2 -0.68 2 0 2 C0 1.34 0 0.68 0 0 Z " fill="#6BB870" transform="translate(272,140)"/>
<path d="M0 0 C2 2 2 2 2 5 C2.66 5 3.32 5 4 5 C4.33 5.99 4.66 6.98 5 8 C6.49985609 9.66710346 6.49985609 9.66710346 8 11 C3.73794894 10.52643877 1.71306207 8.15301808 -1 5 C-1.8125 2.6875 -1.8125 2.6875 -2 1 C-1.34 0.67 -0.68 0.34 0 0 Z " fill="#2B6942" transform="translate(294,289)"/>
<path d="M0 0 C0.33 0.66 0.66 1.32 1 2 C-0.43359375 4.6015625 -0.43359375 4.6015625 -2.4375 7.625 C-3.42556641 9.12933594 -3.42556641 9.12933594 -4.43359375 10.6640625 C-4.95050781 11.43492187 -5.46742188 12.20578125 -6 13 C-6.93616694 10.47518613 -7.17818983 9.40525028 -6.07421875 6.89453125 C-5.61660156 6.20746094 -5.15898437 5.52039063 -4.6875 4.8125 C-4.23761719 4.11769531 -3.78773438 3.42289063 -3.32421875 2.70703125 C-2 1 -2 1 0 0 Z " fill="#5A835D" transform="translate(206,219)"/>
<path d="M0 0 C1.24546405 2.49092811 0.7767578 3.41080733 0 6 C1.65 6.33 3.3 6.66 5 7 C5.33 6.01 5.66 5.02 6 4 C6 5.65 6 7.3 6 9 C4.35 9.33 2.7 9.66 1 10 C0.67 9.01 0.34 8.02 0 7 C0 8.32 0 9.64 0 11 C-0.66 11 -1.32 11 -2 11 C-1.85957123 9.35369672 -1.71250671 7.70795821 -1.5625 6.0625 C-1.48128906 5.14597656 -1.40007812 4.22945313 -1.31640625 3.28515625 C-1 1 -1 1 0 0 Z " fill="#1E582F" transform="translate(292,267)"/>
<path d="M0 0 C2.64 0 5.28 0 8 0 C8.33 0.99 8.66 1.98 9 3 C3.25 6 3.25 6 1 6 C0.67 4.02 0.34 2.04 0 0 Z " fill="#3D8247" transform="translate(179,253)"/>
<path d="M0 0 C0.66 0.33 1.32 0.66 2 1 C0.88340838 4.14041394 0.04378688 6.43796091 -2.98046875 8.06640625 C-4.95932768 8.79140412 -6.97867741 9.40354415 -9 10 C-7.61811547 6.78956118 -6.07578097 4.95063635 -3.375 2.75 C-2.74335938 2.22921875 -2.11171875 1.7084375 -1.4609375 1.171875 C-0.73777344 0.59179688 -0.73777344 0.59179688 0 0 Z " fill="#1D4C2B" transform="translate(234,132)"/>
<path d="M0 0 C2.31 0.33 4.62 0.66 7 1 C7 1.99 7 2.98 7 4 C5.576875 4.2165625 5.576875 4.2165625 4.125 4.4375 C1.1065506 4.82935399 1.1065506 4.82935399 -1 6 C-1.33 4.68 -1.66 3.36 -2 2 C-1.34 2 -0.68 2 0 2 C0 1.34 0 0.68 0 0 Z " fill="#2E7C40" transform="translate(319,302)"/>
<path d="M0 0 C1.98 0 3.96 0 6 0 C6.33 0.99 6.66 1.98 7 3 C7.99 3.66 8.98 4.32 10 5 C7.36660729 5.97533063 6.07651653 6.019574 3.3125 5.3125 C1 4 1 4 0.1875 1.875 C0.125625 1.25625 0.06375 0.6375 0 0 Z " fill="#4A9751" transform="translate(253,130)"/>
<path d="M0 0 C0.66 0 1.32 0 2 0 C3.125 4.75 3.125 4.75 2 7 C3.32 7.33 4.64 7.66 6 8 C4.68 9.32 3.36 10.64 2 12 C1.47026689 10.37787941 0.95146893 8.75218416 0.4375 7.125 C0.14746094 6.22007812 -0.14257812 5.31515625 -0.44140625 4.3828125 C-1 2 -1 2 0 0 Z " fill="#55A85B" transform="translate(264,144)"/>
<path d="M0 0 C0.99 0.33 1.98 0.66 3 1 C2.67 1.99 2.34 2.98 2 4 C4.97 4.495 4.97 4.495 8 5 C6.625 6.5 6.625 6.5 5 8 C4.34 8 3.68 8 3 8 C3.33 8.99 3.66 9.98 4 11 C3.01 11.495 3.01 11.495 2 12 C1.34 8.04 0.68 4.08 0 0 Z " fill="#378249" transform="translate(229,164)"/>
<path d="M0 0 C0.33 0 0.66 0 1 0 C1.37952295 6.19887485 0.8352113 10.4477112 -2 16 C-2.66 16 -3.32 16 -4 16 C-3.34 13.03 -2.68 10.06 -2 7 C-1.34 7 -0.68 7 0 7 C0 4.69 0 2.38 0 0 Z " fill="#558B59" transform="translate(348,277)"/>
<path d="M0 0 C5.66153846 2.46153846 5.66153846 2.46153846 7.375 5.1875 C7.58125 5.785625 7.7875 6.38375 8 7 C4.59687262 5.94124926 1.98646769 4.99097846 -1 3 C-0.67 2.01 -0.34 1.02 0 0 Z " fill="#5B9D61" transform="translate(333,256)"/>
<path d="M0 0 C1.17949219 0.10183594 2.35898438 0.20367187 3.57421875 0.30859375 C4.47785156 0.39238281 5.38148438 0.47617188 6.3125 0.5625 C3.07335771 2.72192819 2.06390267 2.83482978 -1.6875 2.8125 C-2.55375 2.81765625 -3.42 2.8228125 -4.3125 2.828125 C-6.6875 2.5625 -6.6875 2.5625 -9.6875 0.5625 C-6.14075997 -0.61974668 -3.71227005 -0.33079634 0 0 Z " fill="#33643E" transform="translate(252.6875,184.4375)"/>
<path d="M0 0 C1.32 0.33 2.64 0.66 4 1 C4.33 2.32 4.66 3.64 5 5 C6.32 5.33 7.64 5.66 9 6 C6 7 6 7 3.375 6.375 C1 5 1 5 0.1875 2.375 C0.125625 1.59125 0.06375 0.8075 0 0 Z " fill="#317D40" transform="translate(240,147)"/>
<path d="M0 0 C0.99 0 1.98 0 3 0 C2.625 2.4375 2.625 2.4375 2 5 C1.01 5.495 1.01 5.495 0 6 C-1.13350534 8.01669827 -1.13350534 8.01669827 -2 10 C-2.33 8.02 -2.66 6.04 -3 4 C-2.01 3.67 -1.02 3.34 0 3 C0 2.01 0 1.02 0 0 Z " fill="#4E9751" transform="translate(345,272)"/>
<path d="M0 0 C0.66 1.32 1.32 2.64 2 4 C0.8125 5.5625 0.8125 5.5625 -1 7 C-3.6875 6.6875 -3.6875 6.6875 -6 6 C-6 5.34 -6 4.68 -6 4 C-5.34 4 -4.68 4 -4 4 C-4 3.34 -4 2.68 -4 2 C-2.68 2 -1.36 2 0 2 C0 1.34 0 0.68 0 0 Z " fill="#26723A" transform="translate(303,260)"/>
<path d="M0 0 C0.33 0 0.66 0 1 0 C1 2.97 1 5.94 1 9 C0.34 9 -0.32 9 -1 9 C-1 8.34 -1 7.68 -1 7 C-1.66 7 -2.32 7 -3 7 C-2.67 5.35 -2.34 3.7 -2 2 C-1.34 2 -0.68 2 0 2 C0 1.34 0 0.68 0 0 Z " fill="#5CA55F" transform="translate(347,275)"/>
<path d="M0 0 C1.875 0.625 1.875 0.625 4 2 C5.25 5.125 5.25 5.125 6 8 C3.5625 7.375 3.5625 7.375 1 6 C0.1875 2.875 0.1875 2.875 0 0 Z " fill="#508A54" transform="translate(200,261)"/>
<path d="M0 0 C0.99 0.33 1.98 0.66 3 1 C4.1875 4.0625 4.1875 4.0625 5 7 C4.34 7 3.68 7 3 7 C3 7.99 3 8.98 3 10 C2.34 9.67 1.68 9.34 1 9 C0.5859375 6.93359375 0.5859375 6.93359375 0.375 4.4375 C0.30023438 3.61121094 0.22546875 2.78492188 0.1484375 1.93359375 C0.09945313 1.29550781 0.05046875 0.65742188 0 0 Z " fill="#61A065" transform="translate(342,265)"/>
<path d="M0 0 C0.66 0 1.32 0 2 0 C1.67 1.32 1.34 2.64 1 4 C0.34 4 -0.32 4 -1 4 C-1.33 5.32 -1.66 6.64 -2 8 C-2.99 7.67 -3.98 7.34 -5 7 C-4.34 7 -3.68 7 -3 7 C-3.99 5.68 -4.98 4.36 -6 3 C-5.195625 2.87625 -4.39125 2.7525 -3.5625 2.625 C-2.716875 2.41875 -1.87125 2.2125 -1 2 C-0.67 1.34 -0.34 0.68 0 0 Z " fill="#348143" transform="translate(253,172)"/>
<path d="M0 0 C1.32 0.66 2.64 1.32 4 2 C3.34 3.98 2.68 5.96 2 8 C1.67 7.01 1.34 6.02 1 5 C0.34 4.67 -0.32 4.34 -1 4 C-0.67 2.68 -0.34 1.36 0 0 Z " fill="#4D9252" transform="translate(195,257)"/>
<path d="M0 0 C0.33 0.66 0.66 1.32 1 2 C3.02463255 2.65213292 3.02463255 2.65213292 5 3 C4.67 4.98 4.34 6.96 4 9 C3.34 8.67 2.68 8.34 2 8 C2.33 7.34 2.66 6.68 3 6 C2.34 6 1.68 6 1 6 C0.67 4.02 0.34 2.04 0 0 Z " fill="#479551" transform="translate(341,281)"/>
<path d="M0 0 C0.28875 0.61875 0.5775 1.2375 0.875 1.875 C1.93720042 4.13325765 1.93720042 4.13325765 4 6 C4.33 6.99 4.66 7.98 5 9 C3.35 8.67 1.7 8.34 0 8 C-0.98120464 4.94736336 -0.98120464 3.05263664 0 0 Z " fill="#4B9A59" transform="translate(329,265)"/>
<path d="M0 0 C0.66 1.32 1.32 2.64 2 4 C1.34 4 0.68 4 0 4 C-0.66 5.65 -1.32 7.3 -2 9 C-2.33 9 -2.66 9 -3 9 C-3.36923077 3.46153846 -3.36923077 3.46153846 -1.5 1.125 C-1.005 0.75375 -0.51 0.3825 0 0 Z " fill="#1A5534" transform="translate(155,269)"/>
<path d="M0 0 C0.66 0 1.32 0 2 0 C1.9071875 1.1446875 1.9071875 1.1446875 1.8125 2.3125 C1.74101915 5.04525312 1.74101915 5.04525312 3.5 6.8125 C3.995 7.204375 4.49 7.59625 5 8 C4.01 8.33 3.02 8.66 2 9 C1.67 8.01 1.34 7.02 1 6 C0.34 5.67 -0.32 5.34 -1 5 C-0.67 3.35 -0.34 1.7 0 0 Z " fill="#31773C" transform="translate(258,176)"/>
<path d="M0 0 C2.97 0 5.94 0 9 0 C9.33 1.32 9.66 2.64 10 4 C6.58978257 3.21302675 3.31114834 2.12880057 0 1 C0 0.67 0 0.34 0 0 Z " fill="#397440" transform="translate(244,129)"/>
<path d="M0 0 C0.33 0.66 0.66 1.32 1 2 C0.01 2 -0.98 2 -2 2 C-1.67 3.65 -1.34 5.3 -1 7 C-4.51716303 7 -5.37121748 6.17554415 -8 4 C-7.360625 3.87625 -6.72125 3.7525 -6.0625 3.625 C-5.0415625 3.315625 -5.0415625 3.315625 -4 3 C-3.67 2.34 -3.34 1.68 -3 1 C-2.01 0.67 -1.02 0.34 0 0 Z " fill="#2A743A" transform="translate(340,296)"/>
<path d="M0 0 C3.39914975 1.13304992 4.05254451 2.12518475 6 5 C5.67 5.66 5.34 6.32 5 7 C4.01 7.33 3.02 7.66 2 8 C0 1.125 0 1.125 0 0 Z " fill="#28753A" transform="translate(321,285)"/>
<path d="M0 0 C0 1.32 0 2.64 0 4 C-1.65 4.33 -3.3 4.66 -5 5 C-5 3.68 -5 2.36 -5 1 C-2 0 -2 0 0 0 Z " fill="#328246" transform="translate(201,287)"/>
<path d="M0 0 C2 2 2 2 2 6 C2.66 6 3.32 6 4 6 C3.67 7.32 3.34 8.64 3 10 C0.51280729 7.08025204 -0.58572305 4.83206182 -1 1 C-0.67 0.67 -0.34 0.34 0 0 Z " fill="#2F7B3E" transform="translate(328,283)"/>
<path d="M0 0 C0.33 0.66 0.66 1.32 1 2 C-0.98 4.97 -0.98 4.97 -3 8 C-3.66 7.67 -4.32 7.34 -5 7 C-3.75023244 3.34683329 -3.32901247 2.21934164 0 0 Z " fill="#648065" transform="translate(212,210)"/>
<path d="M0 0 C-1 3 -1 3 -4 5 C-4.99 5 -5.98 5 -7 5 C-5.22678182 1.07358831 -4.52021524 0 0 0 Z " fill="#3D7548" transform="translate(241,131)"/>
<path d="M0 0 C1.98 0.495 1.98 0.495 4 1 C4 1.66 4 2.32 4 3 C4.66 3 5.32 3 6 3 C6 3.66 6 4.32 6 5 C5.01 5 4.02 5 3 5 C3 4.34 3 3.68 3 3 C1.68 3 0.36 3 -1 3 C-0.67 2.01 -0.34 1.02 0 0 Z " fill="#469051" transform="translate(202,270)"/>
<path d="M0 0 C4.875 1.75 4.875 1.75 6 4 C5.67 4.66 5.34 5.32 5 6 C4.34 6 3.68 6 3 6 C3 5.34 3 4.68 3 4 C2.34 4 1.68 4 1 4 C0.67 2.68 0.34 1.36 0 0 Z " fill="#70B472" transform="translate(266,135)"/>
<path d="M0 0 C0.33 0.66 0.66 1.32 1 2 C1.66 2 2.32 2 3 2 C3.33 1.34 3.66 0.68 4 0 C4.125 4.75 4.125 4.75 3 7 C2.34 7 1.68 7 1 7 C0.67 4.69 0.34 2.38 0 0 Z " fill="#236D3E" transform="translate(309,298)"/>
<path d="M0 0 C3.125 -0.1875 3.125 -0.1875 6 0 C6 0.66 6 1.32 6 2 C4.68 2 3.36 2 2 2 C1.67 2.66 1.34 3.32 1 4 C0.01 3.67 -0.98 3.34 -2 3 C-1.34 2.01 -0.68 1.02 0 0 Z " fill="#1F6935" transform="translate(308,267)"/>
<path d="M0 0 C0.66 0.33 1.32 0.66 2 1 C2 3.64 2 6.28 2 9 C1.67 8.34 1.34 7.68 1 7 C0.01 6.67 -0.98 6.34 -2 6 C-1.34 5.67 -0.68 5.34 0 5 C0 3.35 0 1.7 0 0 Z " fill="#186431" transform="translate(313,298)"/>
<path d="M0 0 C1.32 0 2.64 0 4 0 C3.67 1.32 3.34 2.64 3 4 C1.35 3.67 -0.3 3.34 -2 3 C-1 1 -1 1 0 0 Z " fill="#37854A" transform="translate(315,277)"/>
<path d="M0 0 C1 3 1 3 1 5 C1.99 5.33 2.98 5.66 4 6 C1.69 6 -0.62 6 -3 6 C-1.125 1.125 -1.125 1.125 0 0 Z " fill="#144F20" transform="translate(296,261)"/>
<path d="M0 0 C2.475 0.99 2.475 0.99 5 2 C5 2.99 5 3.98 5 5 C4.01 5 3.02 5 2 5 C0.3125 3 0.3125 3 -1 1 C-0.67 0.67 -0.34 0.34 0 0 Z " fill="#4B9A55" transform="translate(332,259)"/>
<path d="M0 0 C2.31 0.33 4.62 0.66 7 1 C7 1.66 7 2.32 7 3 C5.02 3 3.04 3 1 3 C0.67 2.01 0.34 1.02 0 0 Z " fill="#539158" transform="translate(320,252)"/>
<path d="M0 0 C0.33 0.66 0.66 1.32 1 2 C0.67 2.66 0.34 3.32 0 4 C-2.64 3.34 -5.28 2.68 -8 2 C-8 1.67 -8 1.34 -8 1 C-5.36 0.67 -2.72 0.34 0 0 Z " fill="#030E04" transform="translate(187,249)"/>
<path d="M0 0 C0.66 0.99 1.32 1.98 2 3 C0.02 5.97 0.02 5.97 -2 9 C-2.6875 7.3125 -2.6875 7.3125 -3 5 C-1.5625 2.25 -1.5625 2.25 0 0 Z " fill="#2C482A" transform="translate(191,242)"/>
</svg>
